<?xml version="1.0" encoding="utf-8"?>
<svg width="160" height="33.6" xmlns="http://www.w3.org/2000/svg">
  <defs/>
  <linearGradient id="A" gradientUnits="userSpaceOnUse" x1="37.329" y1="7.574" x2="32.283" y2="12.619">
    <stop offset="0" stop-color="#fc5b3f"/>
    <stop offset="0.284" stop-color="#f8573d"/>
    <stop offset="0.579" stop-color="#eb4b38"/>
    <stop offset="0.877" stop-color="#d73730"/>
    <stop offset="1" stop-color="#cc2c2c"/>
  </linearGradient>
  <path d="M31.2 5.6l-1 1.1 2.5 6.4 3.9 3.5 2.8-3.4L37.7 8l-4.4-4.5c-.8.7-1.5 1.3-2.1 2.1z" fill="url(#A)"/>
  <path d="M39.5 13.1c1.1-1.2 2.5-1.9 4-1.9 2.2 0 5.7 1.5 5.7 5.6s-3.5 5.6-5.7 5.6c-1.5 0-2.9-.6-4-1.9l-2.8-4-6.5-9.9L28.9 18l1.3 8.9 1 1.1c2.4 2.7 5.5 4.5 8.9 5.2 3.2.7 6.5.4 9.6-.8s5.7-3.2 7.6-5.8c2-2.8 3.1-6.2 3.1-9.8s-1.1-7-3.1-9.8c-1.9-2.6-4.5-4.6-7.6-5.8S43.3-.3 40.1.4c-2.5.5-4.8 1.6-6.8 3.2l6.2 9.5z" fill="#fc5b3f"/>
  <linearGradient id="B" gradientUnits="userSpaceOnUse" x1="22.463" y1="25.299" x2="28.415" y2="21.863">
    <stop offset="0" stop-color="#fc5b3f"/>
    <stop offset="0.284" stop-color="#f8573d"/>
    <stop offset="0.579" stop-color="#eb4b38"/>
    <stop offset="0.877" stop-color="#d73730"/>
    <stop offset="1" stop-color="#cc2c2c"/>
  </linearGradient>
  <path d="M29.2 28.1l1-1.1-2.5-6.4-3.9-3.5-2.8 3.4 1.7 5.1 4.4 4.5c.7-.6 1.5-1.3 2.1-2z" fill="url(#B)"/>
  <path d="M20.9 20.5c-1.1 1.2-2.5 1.9-4 1.9-2.2 0-5.7-1.5-5.7-5.6s3.5-5.6 5.7-5.6c1.5 0 2.9.6 4 1.9l2.8 4 6.5 9.9V6.6l-1-1.1C26.8 2.8 23.7 1 20.3.3c-3.2-.7-6.5-.4-9.6.8S5 4.3 3.1 7C1.1 9.8 0 13.2 0 16.8s1.1 7 3.1 9.8c1.9 2.6 4.5 4.6 7.6 5.8s6.4 1.5 9.6.8c2.5-.5 4.8-1.6 6.8-3.2l-6.2-9.5z" fill="#fc5b3f"/>
  <text style="fill: rgb(255, 255, 255); font-family: 'Showcard Gothic'; font-size: 30px; font-weight: 700; letter-spacing: 1.1px; word-spacing: 12px; white-space: pre;" transform="matrix(0.649517, 0, 0, 0.849043, 23.322369, 3.585626)" x="66.496" y="26.516">CLUST.IO</text>
</svg>